<?xml version="1.0" encoding="UTF-8"?>
<svg xmlns="http://www.w3.org/2000/svg" xmlns:xlink="http://www.w3.org/1999/xlink" width="136.8954pt" height="109.585pt" viewBox="0 0 136.8954 109.585">
<path fill-rule="evenodd" fill="rgb(0%, 53.726196%, 100%)" fill-opacity="1" d="M 14.933594 43.945312 L 31.257812 34.921875 L 31.257812 49.589844 L 25.441406 52.816406 L 31.734375 56.316406 L 31.734375 74.25 C 29.671875 73.070312 28.195312 72.246094 26.945312 71.539062 L 26.945312 58.398438 L 21.398438 55.367188 L 19.558594 56.351562 L 19.558594 67.617188 C 16.824219 65.476562 14.933594 61.910156 14.933594 58.84375 Z M 32.636719 34.984375 L 38.960938 38.484375 L 38.960938 44.824219 L 40.136719 45.402344 L 47.578125 49.0625 L 47.578125 47.765625 L 40.136719 44.242188 L 40.136719 39.132812 L 48.824219 43.945312 L 48.824219 54.828125 L 42.882812 52.066406 L 42.914062 68.222656 C 41.769531 68.863281 40.386719 69.648438 39.058594 70.394531 L 39.058594 50.886719 L 32.636719 47.972656 Z M 48.824219 56.074219 L 48.824219 58.800781 C 48.824219 60.925781 47.429688 65.148438 44.46875 67.359375 C 44.445312 67.375 44.421875 67.394531 44.394531 67.410156 L 44.394531 53.917969 Z M 37.457031 71.308594 C 36.253906 72 35.097656 72.675781 33.964844 73.296875 L 33.964844 49.96875 L 37.457031 51.554688 Z M 25.453125 70.695312 C 24.074219 69.910156 22.796875 69.15625 20.945312 68.011719 L 20.945312 57.046875 L 21.484375 56.757812 L 25.453125 58.929688 Z M 19.648438 46.410156 L 26.742188 42.488281 L 26.742188 47.277344 L 19.648438 51.199219 Z M 19.648438 46.410156 "/>
<path fill-rule="evenodd" fill="rgb(100%, 100%, 100%)" fill-opacity="1" d="M 66.980469 44.820312 L 79.746094 44.820312 L 79.746094 47.351562 L 75.066406 47.351562 L 75.066406 55.972656 L 71.664062 55.972656 L 71.664062 47.351562 L 66.980469 47.351562 Z M 85.503906 44.855469 L 84.738281 44.855469 C 82.195312 44.855469 80.679688 46.402344 80.679688 48.296875 C 80.679688 50.1875 82.503906 51.398438 84.613281 51.503906 C 86.472656 51.59375 87.726562 51.734375 89.734375 51.734375 C 90.214844 51.734375 90.605469 52.128906 90.605469 52.605469 C 90.605469 53.085938 90.214844 53.476562 89.734375 53.476562 L 80.929688 53.476562 L 79.820312 55.960938 L 89.84375 55.960938 C 91.296875 55.960938 94.121094 55.515625 94.222656 52.429688 C 94.292969 50.34375 92.507812 49.214844 89.472656 49.078125 L 85.058594 49.078125 C 84.578125 49.078125 84.1875 48.6875 84.1875 48.207031 C 84.1875 47.730469 84.578125 47.335938 85.058594 47.335938 C 87.65625 47.335938 90.257812 47.335938 92.855469 47.335938 L 92.855469 44.855469 Z M 55.722656 52.53125 L 59.574219 52.53125 L 62.578125 55.972656 L 66.8125 55.972656 L 63.359375 52.421875 C 67.699219 51.492188 67.652344 44.820312 61.675781 44.820312 L 52.589844 44.820312 L 52.589844 55.972656 L 55.722656 55.972656 Z M 55.722656 50.191406 L 61.753906 50.191406 C 62.367188 50.191406 62.945312 49.554688 62.945312 48.773438 C 62.945312 47.996094 62.367188 47.359375 61.753906 47.359375 L 55.722656 47.359375 Z M 113.28125 44.867188 L 121.859375 44.867188 L 121.046875 47.367188 L 113.921875 47.367188 C 112.679688 47.367188 112.066406 48.429688 112.066406 49.726562 L 112.066406 51.296875 C 112.066406 52.492188 112.777344 53.472656 113.921875 53.472656 L 121.734375 53.472656 L 120.921875 55.972656 L 112.933594 55.972656 C 110.65625 55.972656 108.792969 54.191406 108.792969 52.015625 L 108.792969 49.160156 C 108.792969 46.796875 110.8125 44.867188 113.28125 44.867188 Z M 97.265625 55.972656 L 107.441406 55.972656 L 107.441406 53.449219 L 98.882812 53.449219 L 98.882812 51.445312 L 105.972656 51.445312 L 105.972656 49.308594 L 98.882812 49.308594 L 98.882812 47.390625 L 107.441406 47.390625 L 107.441406 44.867188 L 95.738281 44.867188 L 95.738281 55.972656 Z M 97.265625 55.972656 "/>
<path fill-rule="evenodd" fill="rgb(0%, 53.726196%, 100%)" fill-opacity="1" d="M 66.253906 63.007812 L 67.703125 63.007812 L 68.835938 64.355469 L 70.433594 64.355469 L 69.128906 62.960938 C 70.765625 62.5625 70.746094 59.5625 68.496094 59.5625 L 65.074219 59.5625 L 65.074219 64.355469 L 66.253906 64.355469 Z M 59.738281 64.355469 L 63.457031 64.355469 L 63.457031 63.265625 L 60.175781 63.265625 L 60.175781 62.402344 L 63.320312 62.402344 L 63.320312 61.480469 L 60.175781 61.480469 L 60.175781 60.652344 L 63.457031 60.652344 L 63.457031 59.5625 L 59.113281 59.5625 L 59.113281 64.355469 Z M 71.558594 59.5625 L 72.710938 59.5625 L 72.710938 62.535156 C 72.710938 62.960938 73.058594 63.3125 73.488281 63.3125 L 74.777344 63.3125 C 75.207031 63.3125 75.554688 62.960938 75.554688 62.535156 L 75.554688 59.5625 L 76.839844 59.5625 L 76.839844 62.660156 C 76.839844 63.59375 76.078125 64.355469 75.144531 64.355469 L 73.253906 64.355469 C 72.320312 64.355469 71.558594 63.59375 71.558594 62.660156 Z M 73.992188 58.257812 L 75.417969 58.257812 L 74.433594 59.441406 L 73.15625 59.441406 Z M 53.730469 62.949219 C 53.957031 62.949219 56.226562 62.902344 56.609375 62.902344 C 58.296875 62.902344 58.449219 59.5625 56.195312 59.5625 L 52.550781 59.5625 L 52.550781 64.355469 L 53.730469 64.355469 Z M 53.792969 62.007812 L 55.859375 62.007812 C 56.835938 62.007812 56.832031 60.65625 55.859375 60.65625 L 53.792969 60.65625 Z M 66.253906 62.003906 L 68.328125 62.003906 C 69.328125 62.003906 69.363281 60.65625 68.273438 60.65625 L 66.253906 60.65625 Z M 66.253906 62.003906 "/>
</svg>
