<?xml version="1.0" encoding="UTF-8"?>
<svg xmlns="http://www.w3.org/2000/svg" viewBox="14 34 36 41" role="img" aria-label="RTSEC isotipo">
  <path fill="#0089FF" d="M 14.933594 43.945312 L 31.257812 34.921875 L 31.257812 49.589844 L 25.441406 52.816406 L 31.734375 56.316406 L 31.734375 74.25 C 29.671875 73.070312 28.195312 72.246094 26.945312 71.539062 L 26.945312 58.398438 L 21.398438 55.367188 L 19.558594 56.351562 L 19.558594 67.617188 C 16.824219 65.476562 14.933594 61.910156 14.933594 58.84375 Z M 32.636719 34.984375 L 38.960938 38.484375 L 38.960938 44.824219 L 40.136719 45.402344 L 47.578125 49.0625 L 47.578125 47.765625 L 40.136719 44.242188 L 40.136719 39.132812 L 48.824219 43.945312 L 48.824219 54.828125 L 42.882812 52.066406 L 42.914062 68.222656 C 41.769531 68.863281 40.386719 69.648438 39.058594 70.394531 L 39.058594 50.886719 L 32.636719 47.972656 Z M 48.824219 56.074219 L 48.824219 58.800781 C 48.824219 60.925781 47.429688 65.148438 44.46875 67.359375 C 44.445312 67.375 44.421875 67.394531 44.394531 67.410156 L 44.394531 53.917969 Z M 37.457031 71.308594 C 36.253906 72 35.097656 72.675781 33.964844 73.296875 L 33.964844 49.96875 L 37.457031 51.554688 Z M 25.453125 70.695312 C 24.074219 69.910156 22.796875 69.15625 20.945312 68.011719 L 20.945312 57.046875 L 21.484375 56.757812 L 25.453125 58.929688 Z M 19.648438 46.410156 L 26.742188 42.488281 L 26.742188 47.277344 L 19.648438 51.199219 Z"/>
</svg>
